<!-- icon666.com - MILLIONS vector ICONS FREE --><svg version="1.1" id="Layer_1" xmlns="http://www.w3.org/2000/svg" xmlns:xlink="http://www.w3.org/1999/xlink" x="0px" y="0px" viewBox="0 0 511.999 511.999" style="enable-background:new 0 0 511.999 511.999;" xml:space="preserve"><g><g><path d="M480.73,113.073H132.684c-10.034,0-18.974,4.757-24.7,12.127l171.51,125.853c16.022,11.757,38.401,11.757,54.424,0 L505.43,125.201C499.705,117.829,490.764,113.073,480.73,113.073z"></path></g></g><g><g><path d="M347.428,269.466c-11.987,8.795-26.357,13.196-40.722,13.196c-14.369,0-28.733-4.398-40.722-13.196l-164.57-120.761 v162.321H78.577H65.74c-9.459,0-17.127,7.669-17.127,17.127c0,9.459,7.669,17.127,17.127,17.127h12.839h22.835v0v22.374 c0,17.243,14.027,31.27,31.27,31.27h348.045c17.243,0,31.27-14.029,31.27-31.27v-218.95L347.428,269.466z"></path></g></g><g><g><path d="M78.577,251.539c-3.139-3.559-7.72-5.816-12.839-5.816H17.127C7.669,245.723,0,253.392,0,262.85 c0,9.459,7.669,17.127,17.127,17.127H65.74c5.119,0,9.7-2.257,12.839-5.816c2.662-3.019,4.289-6.97,4.289-11.311 C82.867,258.509,81.239,254.558,78.577,251.539z"></path></g></g></svg>