<!-- icon666.com - MILLIONS vector ICONS FREE --><svg id="Capa_1" enable-background="new 0 0 512 512" viewBox="0 0 512 512" xmlns="http://www.w3.org/2000/svg"><g><path d="m477.792 476.272c3.501-4.453 4.189-10.488 1.802-15.615l-210-452.725c-4.922-10.576-22.266-10.576-27.188 0l-210 452.725c-2.388 5.127-1.699 11.162 1.802 15.615 3.472 4.438 9.214 6.475 14.736 5.435l124.655-24.932 68.177-205.521c4.072-12.246 24.375-12.246 28.447 0l68.177 205.521 124.655 24.932c5.311 1.11 11.146-.873 14.737-5.435z"></path><path d="m256 512c3.838 0 7.676-1.465 10.605-4.395l42.845-42.845-53.45-161.328-53.45 161.329 42.845 42.845c2.929 2.929 6.767 4.394 10.605 4.394z"></path></g></svg>